<svg version="1.1" id="Layer_1" xmlns="http://www.w3.org/2000/svg" xmlns:xlink="http://www.w3.org/1999/xlink" x="0px" y="0px"
	 width="100%" viewBox="0 0 512 512" enable-background="new 0 0 512 512" xml:space="preserve">
<path fill="#000000" opacity="1.000000" stroke="none" 
	d="
M513.000000,213.000000 
	C513.000000,312.961151 513.000000,412.922272 513.000000,512.941711 
	C342.438507,512.941711 171.877014,512.941711 1.000000,512.941711 
	C1.000000,413.310913 1.000000,313.621490 1.340686,213.195923 
	C4.802461,218.416916 7.142765,224.983078 11.212266,230.200485 
	C18.939871,240.107880 29.029144,246.863541 42.015499,248.641144 
	C42.003166,317.844757 41.827747,386.596466 42.151676,455.345825 
	C42.209156,467.545166 48.276474,477.526825 58.142899,485.071381 
	C68.937233,493.325409 81.280426,493.839600 94.476578,492.889191 
	C207.243652,492.973877 319.547760,492.995544 431.851898,492.957947 
	C435.086212,492.956879 438.411774,492.698547 441.539490,491.929047 
	C459.359772,487.544556 471.946747,470.946747 471.974609,453.951752 
	C472.049957,407.963806 472.014313,361.975677 471.992889,315.987610 
	C471.985291,299.662567 471.891632,283.337616 471.913696,266.549072 
	C471.985352,260.121246 471.980621,254.156937 472.390137,248.112122 
	C489.328522,246.300827 505.606415,232.141205 511.061676,215.070877 
	C511.321716,214.257217 512.336670,213.684799 513.000000,213.000000 
z"/>
<path fill="#000000" opacity="1.000000" stroke="none" 
	d="
M1.000000,187.000000 
	C1.000000,125.030685 1.000000,63.061367 1.000000,1.046026 
	C171.551498,1.046026 342.103027,1.046026 513.000000,1.046026 
	C513.000000,62.687130 513.000000,124.374908 512.691528,186.824097 
	C511.164795,185.158844 510.018768,182.692673 508.715668,180.312485 
	C503.487732,170.763794 498.214325,161.239960 492.951752,151.710266 
	C485.971802,139.070786 478.986267,126.434425 472.006348,113.343040 
	C472.006165,95.222786 472.004700,77.556213 471.998840,59.889633 
	C471.992126,39.578590 453.394196,21.003147 433.048309,21.002611 
	C315.715546,20.999527 198.382751,20.977812 81.050003,21.022453 
	C59.838867,21.030523 42.048748,39.594223 42.006680,60.290180 
	C41.970432,78.123322 41.986523,95.956573 41.671391,113.976852 
	C34.589779,126.689400 27.769815,139.190033 21.056263,151.747559 
	C14.812550,163.426254 8.688922,175.169144 2.455200,186.853241 
	C2.327410,187.092758 1.500663,186.959396 1.000000,187.000000 
z"/>
<path fill="#FD646F" opacity="1.000000" stroke="none" 
	d="
M1.000000,187.466125 
	C1.500663,186.959396 2.327410,187.092758 2.455200,186.853241 
	C8.688922,175.169144 14.812550,163.426254 21.056263,151.747559 
	C27.769815,139.190033 34.589779,126.689400 42.136559,114.024963 
	C67.933281,113.965981 92.956749,114.045975 117.972214,114.530067 
	C114.023079,143.939804 107.743011,172.648376 106.437485,202.031555 
	C70.983589,202.010422 35.991795,202.005203 1.000000,202.000000 
	C1.000000,197.310745 1.000000,192.621490 1.000000,187.466125 
z"/>
<path fill="#FD646F" opacity="1.000000" stroke="none" 
	d="
M472.003143,113.796707 
	C478.986267,126.434425 485.971802,139.070786 492.951752,151.710266 
	C498.214325,161.239960 503.487732,170.763794 508.715668,180.312485 
	C510.018768,182.692673 511.164795,185.158844 512.691528,187.292755 
	C513.000000,191.689255 513.000000,196.378510 512.531372,201.533478 
	C477.072052,202.014053 442.081421,202.028900 407.054382,201.575424 
	C405.937897,188.778275 405.154114,176.414520 403.705597,164.129150 
	C401.736786,147.430634 399.259827,130.792023 397.464844,114.057007 
	C422.620300,113.923096 447.311737,113.859901 472.003143,113.796707 
z"/>
<path fill="#FC4856" opacity="1.000000" stroke="none" 
	d="
M1.000000,202.458069 
	C35.991795,202.005203 70.983589,202.010422 106.479858,202.021515 
	C106.984329,202.027405 107.066444,202.001221 107.033737,202.391235 
	C106.979637,204.072662 106.958260,205.364059 106.704987,206.978943 
	C104.670250,218.902496 99.244682,228.529251 90.538277,236.322800 
	C76.488174,248.899796 59.719528,250.466949 42.022655,248.188461 
	C29.029144,246.863541 18.939871,240.107880 11.212266,230.200485 
	C7.142765,224.983078 4.802461,218.416916 1.340686,212.729889 
	C1.000000,209.638718 1.000000,206.277420 1.000000,202.458069 
z"/>
<path fill="#FC4856" opacity="1.000000" stroke="none" 
	d="
M407.090790,202.043762 
	C442.081421,202.028900 477.072052,202.014053 512.531372,201.999603 
	C513.000000,205.361282 513.000000,208.722580 513.000000,212.541931 
	C512.336670,213.684799 511.321716,214.257217 511.061676,215.070877 
	C505.606415,232.141205 489.328522,246.300827 471.976990,248.100739 
	C453.867401,250.527054 437.655243,248.642120 423.829559,236.644516 
	C414.633026,228.663956 409.566589,218.456635 407.080536,206.374878 
	C407.041595,204.652313 406.979889,203.323181 406.960876,202.007935 
	C407.003632,202.021790 407.090790,202.043762 407.090790,202.043762 
z"/>
<path fill="#F5F5F5" opacity="1.000000" stroke="none" 
	d="
M471.837280,267.012604 
	C471.891632,283.337616 471.985291,299.662567 471.992889,315.987610 
	C472.014313,361.975677 472.049957,407.963806 471.974609,453.951752 
	C471.946747,470.946747 459.359772,487.544556 441.539490,491.929047 
	C438.411774,492.698547 435.086212,492.956879 431.851898,492.957947 
	C319.547760,492.995544 207.243652,492.973877 94.387009,492.546295 
	C93.318718,491.770691 92.852058,491.233459 92.280006,491.073792 
	C75.492630,486.387787 62.877346,469.686951 62.929996,452.123505 
	C63.109360,392.291077 63.051544,332.457611 62.891594,272.625061 
	C62.879570,268.128601 64.433838,266.726593 68.591469,265.883026 
	C79.884308,263.591705 89.688538,258.195465 96.103355,248.466797 
	C100.717171,241.469498 104.041046,233.621643 107.710411,226.593552 
	C112.708641,248.962097 126.885994,264.263367 150.988068,266.701782 
	C181.249451,269.763306 200.315079,254.869766 208.054077,224.620972 
	C214.673996,252.296402 232.179565,264.466766 251.763046,266.830170 
	C264.766449,268.399475 277.083771,265.746155 288.066742,257.595032 
	C299.044952,249.447433 304.445953,238.173843 308.093719,223.958740 
	C313.909027,249.137085 327.912354,264.808746 352.576508,266.706696 
	C381.861664,268.960266 399.428925,253.361694 406.858856,225.054367 
	C407.426605,225.954086 407.799622,226.299683 407.876068,226.701675 
	C411.364197,245.042770 422.097778,257.287994 439.252563,264.214691 
	C449.844208,268.491364 460.936310,266.550842 471.837280,267.012604 
M127.501244,286.815491 
	C128.918488,291.115509 132.194031,292.605286 136.390839,292.646820 
	C139.889084,292.681427 143.388947,292.607483 146.886169,292.677551 
	C155.195175,292.843933 159.294083,296.305450 161.039612,304.560638 
	C168.401825,339.378815 175.794418,374.190674 183.099655,409.020813 
	C185.346191,419.732025 191.087204,427.501678 201.305115,431.770966 
	C201.867355,432.005920 202.351028,432.428894 202.802612,432.720093 
	C198.802597,448.920319 206.362289,461.787781 221.032593,464.226318 
	C227.691544,465.333160 233.653381,463.680786 238.818085,459.565948 
	C247.044495,453.011810 249.034882,444.154205 246.989746,434.209045 
	C258.426880,434.209045 269.312378,434.209045 280.215820,434.209045 
	C278.983124,452.888153 287.697906,464.654358 302.619263,464.617767 
	C309.203979,464.601624 315.025116,462.246002 319.590210,457.355743 
	C325.762146,450.744232 327.232941,442.879547 325.100739,434.173492 
	C326.059875,433.944031 326.693451,433.816772 327.312988,433.640411 
	C332.381531,432.197174 334.803467,429.116730 334.019775,424.732513 
	C333.174103,420.001709 329.876770,418.206116 325.381134,418.118866 
	C323.882263,418.089783 322.382477,418.108612 320.883087,418.108582 
	C284.898041,418.108002 248.912872,418.064423 212.928024,418.150848 
	C207.031403,418.165009 202.298370,416.270447 199.933746,410.777557 
	C198.398697,407.211731 197.850494,403.221069 196.695572,398.789276 
	C199.377823,398.789276 201.342529,398.789276 203.307251,398.789276 
	C245.623016,398.789032 287.938782,398.795197 330.254547,398.782776 
	C338.178436,398.780457 340.338409,397.014984 341.857697,389.435547 
	C346.956665,363.998016 352.059021,338.561096 357.136658,313.119293 
	C358.962769,303.969452 356.391174,300.881989 346.992004,300.881012 
	C292.181427,300.875336 237.370865,300.878021 182.560287,300.877869 
	C180.573959,300.877838 178.587646,300.877838 176.454224,300.877838 
	C175.866333,299.115753 175.376968,297.552887 174.825699,296.012146 
	C170.909515,285.066681 160.667435,277.504517 149.023849,277.086029 
	C144.697617,276.930542 140.359741,276.951477 136.030899,277.052155 
	C130.042511,277.191406 127.677078,279.702881 127.501244,286.815491 
z"/>
<path fill="#E6E6E6" opacity="1.000000" stroke="none" 
	d="
M471.913696,266.549072 
	C460.936310,266.550842 449.844208,268.491364 439.252563,264.214691 
	C422.097778,257.287994 411.364197,245.042770 407.876068,226.701675 
	C407.799622,226.299683 407.426605,225.954086 406.858856,225.054367 
	C399.428925,253.361694 381.861664,268.960266 352.576508,266.706696 
	C327.912354,264.808746 313.909027,249.137085 308.093719,223.958740 
	C304.445953,238.173843 299.044952,249.447433 288.066742,257.595032 
	C277.083771,265.746155 264.766449,268.399475 251.763046,266.830170 
	C232.179565,264.466766 214.673996,252.296402 208.054077,224.620972 
	C200.315079,254.869766 181.249451,269.763306 150.988068,266.701782 
	C126.885994,264.263367 112.708641,248.962097 107.710411,226.593552 
	C104.041046,233.621643 100.717171,241.469498 96.103355,248.466797 
	C89.688538,258.195465 79.884308,263.591705 68.591469,265.883026 
	C64.433838,266.726593 62.879570,268.128601 62.891594,272.625061 
	C63.051544,332.457611 63.109360,392.291077 62.929996,452.123505 
	C62.877346,469.686951 75.492630,486.387787 92.280006,491.073792 
	C92.852058,491.233459 93.318718,491.770691 93.924057,492.474854 
	C81.280426,493.839600 68.937233,493.325409 58.142899,485.071381 
	C48.276474,477.526825 42.209156,467.545166 42.151676,455.345825 
	C41.827747,386.596466 42.003166,317.844757 42.015499,248.641144 
	C59.719528,250.466949 76.488174,248.899796 90.538277,236.322800 
	C99.244682,228.529251 104.670250,218.902496 106.981850,207.274933 
	C107.875504,208.852859 108.206818,210.473373 108.653343,212.061493 
	C115.095825,234.974808 134.686142,249.199707 159.421539,248.943039 
	C181.565903,248.713257 201.134171,233.012314 206.883591,210.926483 
	C207.238144,209.564499 208.035934,208.317886 208.723419,207.430969 
	C213.277420,239.393082 249.624542,258.259949 279.226990,244.322891 
	C295.142975,236.829544 304.119995,223.928131 308.046997,207.350006 
	C308.552673,208.479568 308.835114,209.256317 309.024994,210.055084 
	C314.275879,232.146667 334.009949,248.564850 355.765961,248.931580 
	C379.208038,249.326736 399.192841,234.400070 405.432709,211.856674 
	C405.907288,210.141983 406.513000,208.463577 407.057770,206.768311 
	C409.566589,218.456635 414.633026,228.663956 423.829559,236.644516 
	C437.655243,248.642120 453.867401,250.527054 471.562775,248.181229 
	C471.980621,254.156937 471.985352,260.121246 471.913696,266.549072 
z"/>
<path fill="#51758D" opacity="1.000000" stroke="none" 
	d="
M472.006348,113.343033 
	C447.311737,113.859901 422.620300,113.923096 397.000183,113.985352 
	C366.710571,114.030693 337.349701,114.076988 307.525696,114.055527 
	C274.055908,114.034126 241.049194,114.080475 207.575943,114.054626 
	C177.399673,114.030281 147.689941,114.078125 117.980225,114.125969 
	C92.956749,114.045975 67.933281,113.965981 42.444641,113.837875 
	C41.986523,95.956573 41.970432,78.123322 42.006680,60.290180 
	C42.048748,39.594223 59.838867,21.030523 81.050003,21.022453 
	C198.382751,20.977812 315.715546,20.999527 433.048309,21.002611 
	C453.394196,21.003147 471.992126,39.578590 471.998840,59.889633 
	C472.004700,77.556213 472.006165,95.222786 472.006348,113.343033 
M102.326553,86.268524 
	C111.071060,80.261581 113.862267,71.617294 111.717636,61.784306 
	C109.671013,52.400703 103.197197,46.613438 93.712685,44.463528 
	C84.153114,42.296608 75.350327,46.649563 67.583832,57.260750 
	C54.251968,70.157356 59.048515,91.032455 76.652184,96.727219 
	C86.288292,99.844490 98.683899,94.998085 102.326553,86.268524 
M223.351089,87.222229 
	C233.780182,80.132057 237.244644,68.487434 232.193985,57.499893 
	C227.508286,47.306328 215.755142,41.944504 204.661240,45.068802 
	C197.284317,47.146317 192.504333,52.259323 188.430878,59.040157 
	C181.386093,65.903900 179.788132,76.412216 184.396606,85.569969 
	C188.290802,93.308304 198.844727,99.363281 207.130890,97.834358 
	C213.569153,96.646408 220.190979,95.019684 223.351089,87.222229 
M127.773361,59.221741 
	C126.442635,60.649441 124.771721,61.884171 123.835075,63.535404 
	C116.453987,76.547783 123.807800,93.421501 138.337799,97.054321 
	C148.417786,99.574539 158.710907,95.583160 162.458359,87.315971 
	C173.016647,79.745926 176.594467,68.891373 171.741943,58.267017 
	C167.742233,49.509857 160.743759,44.423676 151.117874,44.164825 
	C140.394577,43.876465 132.949692,49.387432 127.773361,59.221741 
M437.518463,87.132042 
	C445.258545,82.028214 449.242371,74.834610 448.413849,65.590576 
	C447.239624,52.489010 437.429413,44.213192 423.464966,44.199669 
	C379.840668,44.157417 336.215546,44.326866 292.592529,44.086842 
	C281.194183,44.024128 272.577942,47.911743 266.329742,58.100445 
	C259.125916,65.264565 256.944000,74.474442 260.559174,82.997299 
	C264.675690,92.702209 272.144073,97.742538 282.610077,97.949982 
	C293.415283,98.164162 304.228058,98.000137 315.037506,98.000160 
	C349.295166,98.000237 383.553619,98.124008 417.809906,97.906395 
	C425.747528,97.855972 433.402679,96.124275 437.518463,87.132042 
z"/>
<path fill="#FFC682" opacity="1.000000" stroke="none" 
	d="
M117.972214,114.530067 
	C147.689941,114.078125 177.399673,114.030281 207.568069,114.513336 
	C208.062088,144.052185 208.097412,173.060135 208.086624,202.048981 
	C208.040512,202.029861 207.947037,201.994781 207.481689,201.995544 
	C173.699722,201.997955 140.383087,201.999588 107.066444,202.001221 
	C107.066444,202.001221 106.984329,202.027405 106.941956,202.037445 
	C107.743011,172.648376 114.023079,143.939804 117.972214,114.530067 
z"/>
<path fill="#FFC682" opacity="1.000000" stroke="none" 
	d="
M307.988800,114.123283 
	C337.349701,114.076988 366.710571,114.030693 396.536133,114.056061 
	C399.259827,130.792023 401.736786,147.430634 403.705597,164.129150 
	C405.154114,176.414520 405.937897,188.778275 407.054382,201.575424 
	C407.090790,202.043762 407.003632,202.021790 406.500092,202.011627 
	C373.356506,201.992905 340.716461,201.984360 308.032013,201.990967 
	C307.987610,202.006104 307.902222,202.045044 307.936615,201.573593 
	C307.976929,172.109192 307.982880,143.116241 307.988800,114.123283 
z"/>
<path fill="#FFAC5D" opacity="1.000000" stroke="none" 
	d="
M107.033737,202.391235 
	C140.383087,201.999588 173.699722,201.997955 207.513916,202.364929 
	C208.216827,204.161560 208.422165,205.589584 208.627502,207.017593 
	C208.035934,208.317886 207.238144,209.564499 206.883591,210.926483 
	C201.134171,233.012314 181.565903,248.713257 159.421539,248.943039 
	C134.686142,249.199707 115.095825,234.974808 108.653343,212.061493 
	C108.206818,210.473373 107.875504,208.852859 107.213745,206.951447 
	C106.958260,205.364059 106.979637,204.072662 107.033737,202.391235 
z"/>
<path fill="#FFAC5D" opacity="1.000000" stroke="none" 
	d="
M308.076416,201.975815 
	C340.716461,201.984360 373.356506,201.992905 406.457336,201.997757 
	C406.979889,203.323181 407.041595,204.652313 407.080536,206.374878 
	C406.513000,208.463577 405.907288,210.141983 405.432709,211.856674 
	C399.192841,234.400070 379.208038,249.326736 355.765961,248.931580 
	C334.009949,248.564850 314.275879,232.146667 309.024994,210.055084 
	C308.835114,209.256317 308.552673,208.479568 308.061523,207.018799 
	C307.898590,204.888611 307.987518,203.432220 308.076416,201.975815 
z"/>
<path fill="#52778E" opacity="1.000000" stroke="none" 
	d="
M127.387543,286.448669 
	C127.677078,279.702881 130.042511,277.191406 136.030899,277.052155 
	C140.359741,276.951477 144.697617,276.930542 149.023849,277.086029 
	C160.667435,277.504517 170.909515,285.066681 174.825699,296.012146 
	C175.376968,297.552887 175.866333,299.115753 176.454224,300.877838 
	C178.587646,300.877838 180.573959,300.877838 182.560287,300.877869 
	C237.370865,300.878021 292.181427,300.875336 346.992004,300.881012 
	C356.391174,300.881989 358.962769,303.969452 357.136658,313.119293 
	C352.059021,338.561096 346.956665,363.998016 341.857697,389.435547 
	C340.338409,397.014984 338.178436,398.780457 330.254547,398.782776 
	C287.938782,398.795197 245.623016,398.789032 203.307251,398.789276 
	C201.342529,398.789276 199.377823,398.789276 196.695572,398.789276 
	C197.850494,403.221069 198.398697,407.211731 199.933746,410.777557 
	C202.298370,416.270447 207.031403,418.165009 212.928024,418.150848 
	C248.912872,418.064423 284.898041,418.108002 320.883087,418.108582 
	C322.382477,418.108612 323.882263,418.089783 325.381134,418.118866 
	C329.876770,418.206116 333.174103,420.001709 334.019775,424.732513 
	C334.803467,429.116730 332.381531,432.197174 327.312988,433.640411 
	C326.693451,433.816772 326.059875,433.944031 325.100739,434.173492 
	C327.232941,442.879547 325.762146,450.744232 319.590210,457.355743 
	C315.025116,462.246002 309.203979,464.601624 302.619263,464.617767 
	C287.697906,464.654358 278.983124,452.888153 280.215820,434.209045 
	C269.312378,434.209045 258.426880,434.209045 246.989746,434.209045 
	C249.034882,444.154205 247.044495,453.011810 238.818085,459.565948 
	C233.653381,463.680786 227.691544,465.333160 221.032593,464.226318 
	C206.362289,461.787781 198.802597,448.920319 202.802612,432.720093 
	C202.351028,432.428894 201.867355,432.005920 201.305115,431.770966 
	C191.087204,427.501678 185.346191,419.732025 183.099655,409.020813 
	C175.794418,374.190674 168.401825,339.378815 161.039612,304.560638 
	C159.294083,296.305450 155.195175,292.843933 146.886169,292.677551 
	C143.388947,292.607483 139.889084,292.681427 136.390839,292.646820 
	C132.194031,292.605286 128.918488,291.115509 127.387543,286.448669 
M254.500458,316.159088 
	C248.053543,316.159088 241.606613,316.159088 234.439438,316.159088 
	C235.509537,325.117828 236.501572,333.423035 237.478851,341.604797 
	C253.241211,341.604797 268.445740,341.604797 283.713959,341.604797 
	C284.763550,333.040466 285.766205,324.859100 286.832428,316.159210 
	C276.062653,316.159210 265.781433,316.159210 254.500458,316.159088 
M280.919312,364.548218 
	C281.080200,362.306458 281.241089,360.064728 281.414307,357.651215 
	C267.355530,357.651215 253.787354,357.651215 239.619766,357.651215 
	C240.546082,365.581451 241.353470,373.151459 242.411285,380.686279 
	C242.538147,381.589874 244.015121,382.987579 244.882675,382.999847 
	C255.989029,383.157227 267.098389,383.103699 278.458069,383.103699 
	C279.296112,376.876587 280.067657,371.143616 280.919312,364.548218 
M183.764069,336.805786 
	C184.672806,338.526276 185.538528,341.715698 186.496841,341.743774 
	C198.226959,342.087219 209.970627,341.967255 222.018372,341.967255 
	C220.851456,333.018890 219.767822,324.709229 218.652756,316.158508 
	C211.802826,316.158508 205.506973,316.158478 199.211136,316.158478 
	C192.824402,316.158478 186.437668,316.158508 179.403366,316.158508 
	C180.907837,323.384277 182.219513,329.684082 183.764069,336.805786 
M329.461304,316.158142 
	C321.633698,316.158844 313.800720,316.013641 305.983551,316.299744 
	C304.635406,316.349121 302.399109,318.072540 302.198639,319.290253 
	C300.988586,326.641907 300.251465,334.071381 299.292419,342.001801 
	C301.226349,342.001801 302.857544,342.001801 304.488708,342.001801 
	C314.779358,342.001801 325.069977,342.001801 335.588837,342.001801 
	C337.333282,333.306274 338.990326,325.046387 340.773407,316.158295 
	C337.010498,316.158295 333.727234,316.158295 329.461304,316.158142 
M205.501144,357.336182 
	C199.872543,357.336182 194.243927,357.336182 188.042389,357.336182 
	C189.954910,366.299194 191.736130,374.646790 193.544357,383.121033 
	C199.585861,383.121033 205.076202,383.121033 210.566544,383.121033 
	C215.986893,383.121033 221.407257,383.121033 227.164139,383.121033 
	C225.991669,374.105957 224.925461,365.907867 223.810699,357.336578 
	C217.780304,357.336578 212.139862,357.336578 205.501144,357.336182 
M296.758972,362.266693 
	C295.882996,368.988708 295.007019,375.710754 294.043915,383.101562 
	C304.654938,383.101562 314.903168,383.145752 325.149353,383.021515 
	C326.011200,383.011078 327.455322,382.000000 327.621735,381.234772 
	C329.301392,373.510345 330.770874,365.740234 332.422729,357.356964 
	C321.074921,357.356964 310.473175,357.244659 299.882355,357.533722 
	C298.843658,357.562073 297.872253,360.056885 296.758972,362.266693 
M298.091217,435.359863 
	C297.255127,438.196014 295.366852,441.258606 295.913147,443.797333 
	C296.356537,445.857849 299.700592,448.625824 301.798370,448.660675 
	C304.402863,448.703918 308.082672,446.868378 309.368713,444.700043 
	C310.517944,442.762268 309.898956,438.725555 308.535858,436.586212 
	C306.315552,433.101532 302.450134,433.011627 298.091217,435.359863 
M232.091843,442.264313 
	C230.686188,439.672028 229.865479,436.163666 227.691116,434.775299 
	C225.929718,433.650635 221.615463,434.131989 220.108398,435.609467 
	C218.244492,437.436707 216.938644,441.340118 217.581039,443.767029 
	C218.152771,445.927002 221.498367,448.237610 223.998566,448.801208 
	C228.060730,449.716919 230.814468,447.071503 232.091843,442.264313 
z"/>
<path fill="#FC4856" opacity="1.000000" stroke="none" 
	d="
M308.032043,201.990967 
	C307.987518,203.432220 307.898590,204.888611 307.795166,206.676224 
	C304.119995,223.928131 295.142975,236.829544 279.226990,244.322891 
	C249.624542,258.259949 213.277420,239.393082 208.723404,207.430969 
	C208.422165,205.589584 208.216827,204.161560 207.979248,202.364166 
	C207.947037,201.994781 208.040512,202.029861 208.542572,202.027893 
	C241.997177,202.032288 274.949707,202.038666 307.902222,202.045044 
	C307.902222,202.045044 307.987610,202.006104 308.032043,201.990967 
z"/>
<path fill="#FD646F" opacity="1.000000" stroke="none" 
	d="
M307.936615,201.573593 
	C274.949707,202.038666 241.997177,202.032288 208.588684,202.046997 
	C208.097412,173.060135 208.062088,144.052185 208.034622,114.585526 
	C241.049194,114.080475 274.055908,114.034126 307.525696,114.055527 
	C307.982880,143.116241 307.976929,172.109192 307.936615,201.573593 
z"/>
<path fill="#F2F3F3" opacity="1.000000" stroke="none" 
	d="
M267.008514,57.995499 
	C272.577942,47.911743 281.194183,44.024128 292.592529,44.086842 
	C336.215546,44.326866 379.840668,44.157417 423.464966,44.199669 
	C437.429413,44.213192 447.239624,52.489010 448.413849,65.590576 
	C449.242371,74.834610 445.258545,82.028214 436.960754,87.519707 
	C431.730408,88.836319 427.061462,90.549873 422.384521,90.572029 
	C378.824890,90.778435 335.258545,90.299828 291.705841,90.886383 
	C274.048492,91.124184 260.280914,76.383675 267.008514,57.995499 
z"/>
<path fill="#FDC582" opacity="1.000000" stroke="none" 
	d="
M128.500320,59.048149 
	C132.949692,49.387432 140.394577,43.876465 151.117874,44.164825 
	C160.743759,44.423676 167.742233,49.509857 171.741943,58.267017 
	C176.594467,68.891373 173.016647,79.745926 161.892609,87.681381 
	C156.523834,88.877098 151.578690,90.881310 146.944092,90.320251 
	C132.346405,88.553070 123.132774,73.187225 128.500320,59.048149 
z"/>
<path fill="#92DCB7" opacity="1.000000" stroke="none" 
	d="
M189.139954,58.901310 
	C192.504333,52.259323 197.284317,47.146317 204.661240,45.068802 
	C215.755142,41.944504 227.508286,47.306328 232.193985,57.499893 
	C237.244644,68.487434 233.780182,80.132057 222.793640,87.607590 
	C217.256668,88.823296 212.137054,90.826874 207.325348,90.252205 
	C195.441101,88.832848 184.161026,77.107536 189.139954,58.901310 
z"/>
<path fill="#FB646F" opacity="1.000000" stroke="none" 
	d="
M68.255669,57.025665 
	C75.350327,46.649563 84.153114,42.296608 93.712685,44.463528 
	C103.197197,46.613438 109.671013,52.400703 111.717636,61.784306 
	C113.862267,71.617294 111.071060,80.261581 101.790176,86.654961 
	C95.314178,90.396790 89.022682,91.223030 82.515236,89.230453 
	C69.140816,85.135178 63.658337,72.633286 68.255669,57.025665 
z"/>
<path fill="#2D5A80" opacity="1.000000" stroke="none" 
	d="
M266.669128,58.047974 
	C260.280914,76.383675 274.048492,91.124184 291.705841,90.886383 
	C335.258545,90.299828 378.824890,90.778435 422.384521,90.572029 
	C427.061462,90.549873 431.730408,88.836319 436.790466,87.782204 
	C433.402679,96.124275 425.747528,97.855972 417.809906,97.906395 
	C383.553619,98.124008 349.295166,98.000237 315.037506,98.000160 
	C304.228058,98.000137 293.415283,98.164162 282.610077,97.949982 
	C272.144073,97.742538 264.675690,92.702209 260.559174,82.997299 
	C256.944000,74.474442 259.125916,65.264565 266.669128,58.047974 
z"/>
<path fill="#2F5A7F" opacity="1.000000" stroke="none" 
	d="
M67.919754,57.143208 
	C63.658337,72.633286 69.140816,85.135178 82.515236,89.230453 
	C89.022682,91.223030 95.314178,90.396790 101.616165,86.933289 
	C98.683899,94.998085 86.288292,99.844490 76.652184,96.727219 
	C59.048515,91.032455 54.251968,70.157356 67.919754,57.143208 
z"/>
<path fill="#2E5B7F" opacity="1.000000" stroke="none" 
	d="
M128.136841,59.134945 
	C123.132774,73.187225 132.346405,88.553070 146.944092,90.320251 
	C151.578690,90.881310 156.523834,88.877098 161.702377,87.947685 
	C158.710907,95.583160 148.417786,99.574539 138.337799,97.054321 
	C123.807800,93.421501 116.453987,76.547783 123.835075,63.535404 
	C124.771721,61.884171 126.442635,60.649441 128.136841,59.134945 
z"/>
<path fill="#2D5B80" opacity="1.000000" stroke="none" 
	d="
M188.785416,58.970734 
	C184.161026,77.107536 195.441101,88.832848 207.325348,90.252205 
	C212.137054,90.826874 217.256668,88.823296 222.596161,87.867302 
	C220.190979,95.019684 213.569153,96.646408 207.130890,97.834358 
	C198.844727,99.363281 188.290802,93.308304 184.396606,85.569969 
	C179.788132,76.412216 181.386093,65.903900 188.785416,58.970734 
z"/>
<path fill="#F2F3F3" opacity="1.000000" stroke="none" 
	d="
M255.000336,316.159149 
	C265.781433,316.159210 276.062653,316.159210 286.832428,316.159210 
	C285.766205,324.859100 284.763550,333.040466 283.713959,341.604797 
	C268.445740,341.604797 253.241211,341.604797 237.478851,341.604797 
	C236.501572,333.423035 235.509537,325.117828 234.439438,316.159088 
	C241.606613,316.159088 248.053543,316.159088 255.000336,316.159149 
z"/>
<path fill="#F1F2F2" opacity="1.000000" stroke="none" 
	d="
M280.879242,364.979431 
	C280.067657,371.143616 279.296112,376.876587 278.458069,383.103699 
	C267.098389,383.103699 255.989029,383.157227 244.882675,382.999847 
	C244.015121,382.987579 242.538147,381.589874 242.411285,380.686279 
	C241.353470,373.151459 240.546082,365.581451 239.619766,357.651215 
	C253.787354,357.651215 267.355530,357.651215 281.414307,357.651215 
	C281.241089,360.064728 281.080200,362.306458 280.879242,364.979431 
z"/>
<path fill="#F2F3F3" opacity="1.000000" stroke="none" 
	d="
M183.647629,336.394836 
	C182.219513,329.684082 180.907837,323.384277 179.403366,316.158508 
	C186.437668,316.158508 192.824402,316.158478 199.211136,316.158478 
	C205.506973,316.158478 211.802826,316.158508 218.652756,316.158508 
	C219.767822,324.709229 220.851456,333.018890 222.018372,341.967255 
	C209.970627,341.967255 198.226959,342.087219 186.496841,341.743774 
	C185.538528,341.715698 184.672806,338.526276 183.647629,336.394836 
z"/>
<path fill="#F2F3F3" opacity="1.000000" stroke="none" 
	d="
M329.952637,316.158203 
	C333.727234,316.158295 337.010498,316.158295 340.773407,316.158295 
	C338.990326,325.046387 337.333282,333.306274 335.588837,342.001801 
	C325.069977,342.001801 314.779358,342.001801 304.488708,342.001801 
	C302.857544,342.001801 301.226349,342.001801 299.292419,342.001801 
	C300.251465,334.071381 300.988586,326.641907 302.198639,319.290253 
	C302.399109,318.072540 304.635406,316.349121 305.983551,316.299744 
	C313.800720,316.013641 321.633698,316.158844 329.952637,316.158203 
z"/>
<path fill="#F1F2F2" opacity="1.000000" stroke="none" 
	d="
M206.000275,357.336365 
	C212.139862,357.336578 217.780304,357.336578 223.810699,357.336578 
	C224.925461,365.907867 225.991669,374.105957 227.164139,383.121033 
	C221.407257,383.121033 215.986893,383.121033 210.566544,383.121033 
	C205.076202,383.121033 199.585861,383.121033 193.544357,383.121033 
	C191.736130,374.646790 189.954910,366.299194 188.042389,357.336182 
	C194.243927,357.336182 199.872543,357.336182 206.000275,357.336365 
z"/>
<path fill="#F1F2F3" opacity="1.000000" stroke="none" 
	d="
M296.814270,361.836761 
	C297.872253,360.056885 298.843658,357.562073 299.882355,357.533722 
	C310.473175,357.244659 321.074921,357.356964 332.422729,357.356964 
	C330.770874,365.740234 329.301392,373.510345 327.621735,381.234772 
	C327.455322,382.000000 326.011200,383.011078 325.149353,383.021515 
	C314.903168,383.145752 304.654938,383.101562 294.043915,383.101562 
	C295.007019,375.710754 295.882996,368.988708 296.814270,361.836761 
z"/>
<path fill="#F0F1F2" opacity="1.000000" stroke="none" 
	d="
M298.419617,435.138306 
	C302.450134,433.011627 306.315552,433.101532 308.535858,436.586212 
	C309.898956,438.725555 310.517944,442.762268 309.368713,444.700043 
	C308.082672,446.868378 304.402863,448.703918 301.798370,448.660675 
	C299.700592,448.625824 296.356537,445.857849 295.913147,443.797333 
	C295.366852,441.258606 297.255127,438.196014 298.419617,435.138306 
z"/>
<path fill="#F2F2F3" opacity="1.000000" stroke="none" 
	d="
M232.047302,442.664062 
	C230.814468,447.071503 228.060730,449.716919 223.998566,448.801208 
	C221.498367,448.237610 218.152771,445.927002 217.581039,443.767029 
	C216.938644,441.340118 218.244492,437.436707 220.108398,435.609467 
	C221.615463,434.131989 225.929718,433.650635 227.691116,434.775299 
	C229.865479,436.163666 230.686188,439.672028 232.047302,442.664062 
z"/>
</svg>